<svg xmlns="http://www.w3.org/2000/svg" width="32" height="32" fill="none"><g filter="url(#a)"><path fill="url(#b)" d="M13.55 2.88a.8.8 0 0 0-1.1-.3l-1.38.8a.8.8 0 0 0-.3 1.1L22.1 24.09c.6 1.04.25 2.4.25 3.59a2.56 2.56 0 1 0 4.69-1.44z"/></g><path fill="url(#c)" d="M13.55 2.88a.8.8 0 0 0-1.1-.3l-1.38.8a.8.8 0 0 0-.3 1.1L22.1 24.09c.6 1.04.25 2.4.25 3.59a2.56 2.56 0 1 0 4.69-1.44z"/><path fill="url(#d)" d="M13.55 2.88a.8.8 0 0 0-1.1-.3l-1.38.8a.8.8 0 0 0-.3 1.1L22.1 24.09c.6 1.04.25 2.4.25 3.59a2.56 2.56 0 1 0 4.69-1.44z"/><path fill="url(#e)" d="M13.55 2.88a.8.8 0 0 0-1.1-.3l-1.38.8a.8.8 0 0 0-.3 1.1L22.1 24.09c.6 1.04.25 2.4.25 3.59a2.56 2.56 0 1 0 4.69-1.44z"/><g filter="url(#f)"><circle cx="24.87" cy="27.72" r="1.07" fill="#6C424D"/></g><circle cx="24.92" cy="27.68" r="1.07" fill="url(#g)"/><g filter="url(#h)"><circle cx="24.92" cy="27.68" r=".85" fill="#D0C2DF"/></g><g filter="url(#i)"><path fill="url(#j)" d="M14 12.79c-.4.25-1.13.72-1.79 1.34-.35.33-.64.8-.85 1.26-.19.38-.56.65-.98.6a6.12 6.12 0 0 1-4.84-8.56.9.9 0 0 1 .93-.51 4.4 4.4 0 0 0 2.95-.64l5-2.88a.8.8 0 0 1 1.09.29l3.16 5.48a.8.8 0 0 1-.3 1.09z"/></g><g filter="url(#k)"><path fill="url(#l)" d="M14 12.79c-.4.25-1.13.72-1.79 1.34-.35.33-.64.8-.85 1.26-.19.38-.56.65-.98.6a6.12 6.12 0 0 1-4.84-8.56.9.9 0 0 1 .93-.51 4.4 4.4 0 0 0 2.95-.64l5-2.88a.8.8 0 0 1 1.09.29l3.16 5.48a.8.8 0 0 1-.3 1.09z"/></g><g filter="url(#m)"><path fill="url(#n)" d="M14 12.79c-.4.25-1.13.72-1.79 1.34-.35.33-.64.8-.85 1.26-.19.38-.56.65-.98.6a6.12 6.12 0 0 1-4.84-8.56.9.9 0 0 1 .93-.51 4.4 4.4 0 0 0 2.95-.64l5-2.88a.8.8 0 0 1 1.09.29l3.16 5.48a.8.8 0 0 1-.3 1.09z"/></g><path fill="url(#o)" d="M12 14.35c-.25.3-.47.68-.64 1.04-.19.38-.56.65-.98.6a6.12 6.12 0 0 1-4.84-8.56.9.9 0 0 1 .93-.51q.6.06 1.23-.02a4.5 4.5 0 0 0-.53 5.37c1.17 1.99 3.36 2.22 4.84 2.08"/><path fill="url(#p)" d="M12 14.35c-.25.3-.47.68-.64 1.04-.19.38-.56.65-.98.6a6.12 6.12 0 0 1-4.84-8.56.9.9 0 0 1 .93-.51q.6.06 1.23-.02a4.5 4.5 0 0 0-.53 5.37c1.17 1.99 3.36 2.22 4.84 2.08"/><path fill="url(#q)" d="M12 14.35c-.25.3-.47.68-.64 1.04-.19.38-.56.65-.98.6a6.12 6.12 0 0 1-4.84-8.56.9.9 0 0 1 .93-.51q.6.06 1.23-.02a4.5 4.5 0 0 0-.53 5.37c1.17 1.99 3.36 2.22 4.84 2.08"/><g filter="url(#r)"><rect width="1.95" height="6.48" x="13.54" y="4.82" fill="url(#s)" rx=".25" transform="rotate(-30 13.54 4.82)"/></g><defs><radialGradient id="d" cx="0" cy="0" r="1" gradientTransform="matrix(-.43692 25.03129 -18.10474 -.31602 24.96 5.45)" gradientUnits="userSpaceOnUse"><stop offset=".93" stop-color="#68305B" stop-opacity="0"/><stop offset="1" stop-color="#68305B"/></radialGradient><radialGradient id="e" cx="0" cy="0" r="1" gradientTransform="rotate(50.77 -2.96 22.94)scale(.98833 6.44419)" gradientUnits="userSpaceOnUse"><stop offset=".33" stop-color="#723643"/><stop offset=".93" stop-color="#723643" stop-opacity="0"/></radialGradient><radialGradient id="j" cx="0" cy="0" r="1" gradientTransform="matrix(-8.78131 5.7812 -4.54303 -6.9006 17.35 6.46)" gradientUnits="userSpaceOnUse"><stop offset=".13" stop-color="#FC3F8E"/><stop offset="1" stop-color="#F63B62"/></radialGradient><radialGradient id="l" cx="0" cy="0" r="1" gradientTransform="matrix(-8.78131 5.7812 -4.54303 -6.9006 17.35 6.46)" gradientUnits="userSpaceOnUse"><stop offset=".13" stop-color="#FC3F8E"/><stop offset="1" stop-color="#F63B62"/></radialGradient><radialGradient id="n" cx="0" cy="0" r="1" gradientTransform="matrix(-8.78131 5.7812 -4.54303 -6.9006 17.35 6.46)" gradientUnits="userSpaceOnUse"><stop offset=".13" stop-color="#FC3F8E"/><stop offset="1" stop-color="#F63B62"/></radialGradient><radialGradient id="o" cx="0" cy="0" r="1" gradientTransform="matrix(-2.71861 1.85243 -3.41669 -5.01431 8.93 11.45)" gradientUnits="userSpaceOnUse"><stop offset=".64" stop-color="#BFB2CA"/><stop offset="1" stop-color="#AE98AF"/></radialGradient><radialGradient id="p" cx="0" cy="0" r="1" gradientTransform="matrix(-2.65622 7.0395 -7.43236 -2.80445 11.67 8.96)" gradientUnits="userSpaceOnUse"><stop offset=".83" stop-color="#AA82C9" stop-opacity="0"/><stop offset="1" stop-color="#AA82C9"/></radialGradient><radialGradient id="q" cx="0" cy="0" r="1" gradientTransform="matrix(-1.03125 1.625 -.71032 -.45078 11.67 14.15)" gradientUnits="userSpaceOnUse"><stop offset=".2" stop-color="#D0C1DF"/><stop offset="1" stop-color="#D0C1DF" stop-opacity="0"/></radialGradient><filter id="a" width="17.61" height="28.57" x="10.27" y="2.08" color-interpolation-filters="sRGB" filterUnits="userSpaceOnUse"><feFlood flood-opacity="0" result="BackgroundImageFix"/><feBlend in="SourceGraphic" in2="BackgroundImageFix" result="shape"/><feColorMatrix in="SourceAlpha" result="hardAlpha" values="0 0 0 0 0 0 0 0 0 0 0 0 0 0 0 0 0 0 127 0"/><feOffset dx=".4" dy="-.4"/><feGaussianBlur stdDeviation=".3"/><feComposite in2="hardAlpha" k2="-1" k3="1" operator="arithmetic"/><feColorMatrix values="0 0 0 0 0.415686 0 0 0 0 0.254902 0 0 0 0 0.270588 0 0 0 1 0"/><feBlend in2="shape" result="effect1_innerShadow_18_23821"/><feColorMatrix in="SourceAlpha" result="hardAlpha" values="0 0 0 0 0 0 0 0 0 0 0 0 0 0 0 0 0 0 127 0"/><feOffset dx="-.4" dy=".4"/><feGaussianBlur stdDeviation=".3"/><feComposite in2="hardAlpha" k2="-1" k3="1" operator="arithmetic"/><feColorMatrix values="0 0 0 0 0.584314 0 0 0 0 0.447059 0 0 0 0 0.411765 0 0 0 1 0"/><feBlend in2="effect1_innerShadow_18_23821" result="effect2_innerShadow_18_23821"/></filter><filter id="f" width="2.74" height="2.74" x="23.5" y="26.35" color-interpolation-filters="sRGB" filterUnits="userSpaceOnUse"><feFlood flood-opacity="0" result="BackgroundImageFix"/><feBlend in="SourceGraphic" in2="BackgroundImageFix" result="shape"/><feGaussianBlur result="effect1_foregroundBlur_18_23821" stdDeviation=".15"/></filter><filter id="h" width="2.2" height="2.2" x="23.81" y="26.58" color-interpolation-filters="sRGB" filterUnits="userSpaceOnUse"><feFlood flood-opacity="0" result="BackgroundImageFix"/><feBlend in="SourceGraphic" in2="BackgroundImageFix" result="shape"/><feGaussianBlur result="effect1_foregroundBlur_18_23821" stdDeviation=".13"/></filter><filter id="i" width="13.77" height="13.11" x="5.01" y="2.89" color-interpolation-filters="sRGB" filterUnits="userSpaceOnUse"><feFlood flood-opacity="0" result="BackgroundImageFix"/><feBlend in="SourceGraphic" in2="BackgroundImageFix" result="shape"/><feColorMatrix in="SourceAlpha" result="hardAlpha" values="0 0 0 0 0 0 0 0 0 0 0 0 0 0 0 0 0 0 127 0"/><feOffset dy="-.4"/><feGaussianBlur stdDeviation=".4"/><feComposite in2="hardAlpha" k2="-1" k3="1" operator="arithmetic"/><feColorMatrix values="0 0 0 0 0.854902 0 0 0 0 0.180392 0 0 0 0 0.537255 0 0 0 1 0"/><feBlend in2="shape" result="effect1_innerShadow_18_23821"/></filter><filter id="k" width="13.77" height="13.11" x="5.01" y="2.89" color-interpolation-filters="sRGB" filterUnits="userSpaceOnUse"><feFlood flood-opacity="0" result="BackgroundImageFix"/><feBlend in="SourceGraphic" in2="BackgroundImageFix" result="shape"/><feColorMatrix in="SourceAlpha" result="hardAlpha" values="0 0 0 0 0 0 0 0 0 0 0 0 0 0 0 0 0 0 127 0"/><feOffset dy="-.4"/><feGaussianBlur stdDeviation=".4"/><feComposite in2="hardAlpha" k2="-1" k3="1" operator="arithmetic"/><feColorMatrix values="0 0 0 0 0.854902 0 0 0 0 0.180392 0 0 0 0 0.537255 0 0 0 1 0"/><feBlend in2="shape" result="effect1_innerShadow_18_23821"/></filter><filter id="m" width="13.77" height="13.71" x="5.01" y="2.89" color-interpolation-filters="sRGB" filterUnits="userSpaceOnUse"><feFlood flood-opacity="0" result="BackgroundImageFix"/><feBlend in="SourceGraphic" in2="BackgroundImageFix" result="shape"/><feColorMatrix in="SourceAlpha" result="hardAlpha" values="0 0 0 0 0 0 0 0 0 0 0 0 0 0 0 0 0 0 127 0"/><feOffset dy="-.4"/><feGaussianBlur stdDeviation=".4"/><feComposite in2="hardAlpha" k2="-1" k3="1" operator="arithmetic"/><feColorMatrix values="0 0 0 0 0.854902 0 0 0 0 0.180392 0 0 0 0 0.537255 0 0 0 1 0"/><feBlend in2="shape" result="effect1_innerShadow_18_23821"/><feColorMatrix in="SourceAlpha" result="hardAlpha" values="0 0 0 0 0 0 0 0 0 0 0 0 0 0 0 0 0 0 127 0"/><feOffset dy=".6"/><feGaussianBlur stdDeviation=".5"/><feComposite in2="hardAlpha" k2="-1" k3="1" operator="arithmetic"/><feColorMatrix values="0 0 0 0 0.870588 0 0 0 0 0.2 0 0 0 0 0.4 0 0 0 1 0"/><feBlend in2="effect1_innerShadow_18_23821" result="effect2_innerShadow_18_23821"/></filter><filter id="r" width="6.24" height="7.9" x="12.88" y="3.19" color-interpolation-filters="sRGB" filterUnits="userSpaceOnUse"><feFlood flood-opacity="0" result="BackgroundImageFix"/><feBlend in="SourceGraphic" in2="BackgroundImageFix" result="shape"/><feGaussianBlur result="effect1_foregroundBlur_18_23821" stdDeviation=".38"/></filter><linearGradient id="b" x1="12.63" x2="24.7" y1="4.02" y2="24.9" gradientUnits="userSpaceOnUse"><stop stop-color="#825A51"/><stop offset="1" stop-color="#795055"/></linearGradient><linearGradient id="c" x1="11.92" x2="12.48" y1="2.87" y2="3.49" gradientUnits="userSpaceOnUse"><stop stop-color="#7B5447"/><stop offset="1" stop-color="#7B5447" stop-opacity="0"/></linearGradient><linearGradient id="g" x1="25.76" x2="24.43" y1="26.82" y2="28.62" gradientUnits="userSpaceOnUse"><stop stop-color="#E7E2EC"/><stop offset=".63" stop-color="#B1A4B1"/><stop offset="1" stop-color="#A987C0"/></linearGradient><linearGradient id="s" x1="15.87" x2="13.03" y1="7.92" y2="8.23" gradientUnits="userSpaceOnUse"><stop stop-color="#FF63AF"/><stop offset="1" stop-color="#FF63AF" stop-opacity="0"/></linearGradient></defs></svg>