<svg xmlns="http://www.w3.org/2000/svg" width="32" height="32" fill="none"><g filter="url(#a)"><circle cx="15.98" cy="13.83" r="11.81" fill="url(#b)"/><circle cx="15.98" cy="13.83" r="11.81" fill="url(#c)"/><circle cx="15.98" cy="13.83" r="11.81" fill="url(#d)"/><circle cx="15.98" cy="13.83" r="11.81" fill="url(#e)"/></g><g filter="url(#f)"><path fill="#453852" fill-rule="evenodd" d="M9.91 16.86c-.08-.4-.4-.71-.8-.81q-.66-.18-1.45-.56a.58.58 0 0 1 0-1.06 8 8 0 0 1 1.46-.55c.4-.1.71-.42.79-.82.12-.6.32-1.35.62-2.08a.52.52 0 0 1 .97 0c.3.73.5 1.47.62 2.08.08.4.4.71.8.82q.64.17 1.45.55a.6.6 0 0 1 0 1.06q-.8.38-1.46.56c-.4.1-.71.41-.79.81-.12.6-.32 1.35-.62 2.08a.52.52 0 0 1-.97 0c-.3-.73-.5-1.47-.62-2.08" clip-rule="evenodd"/></g><g filter="url(#g)"><path fill="url(#h)" fill-rule="evenodd" d="M9.91 16.86c-.08-.4-.4-.71-.8-.81q-.66-.18-1.45-.56a.58.58 0 0 1 0-1.06 8 8 0 0 1 1.46-.55c.4-.1.71-.42.79-.82.12-.6.32-1.35.62-2.08a.52.52 0 0 1 .97 0c.3.73.5 1.47.62 2.08.08.4.4.71.8.82q.64.17 1.45.55a.6.6 0 0 1 0 1.06q-.8.38-1.46.56c-.4.1-.71.41-.79.81-.12.6-.32 1.35-.62 2.08a.52.52 0 0 1-.97 0c-.3-.73-.5-1.47-.62-2.08" clip-rule="evenodd"/></g><g filter="url(#i)"><path fill="url(#j)" fill-rule="evenodd" d="M14.08 7.24a.4.4 0 0 0-.32-.32 3 3 0 0 1-.59-.23.23.23 0 0 1 0-.42q.32-.16.6-.22a.4.4 0 0 0 .3-.33q.09-.37.26-.84a.2.2 0 0 1 .39 0q.18.46.24.84.07.25.32.33.26.06.59.22c.17.09.17.33 0 .42q-.32.15-.59.23a.4.4 0 0 0-.32.32q-.06.38-.24.84a.2.2 0 0 1-.4 0q-.17-.46-.24-.84" clip-rule="evenodd"/></g><g filter="url(#k)"><path fill="url(#l)" fill-rule="evenodd" d="M21.84 11.55a.6.6 0 0 0-.46-.46 5 5 0 0 1-.83-.32.33.33 0 0 1 0-.6q.45-.23.83-.33.36-.1.46-.46c.06-.35.18-.78.35-1.2a.3.3 0 0 1 .56 0c.17.42.28.85.35 1.2.05.23.23.4.45.46q.38.1.84.32c.25.13.25.48 0 .6q-.46.23-.84.33a.6.6 0 0 0-.45.46 7 7 0 0 1-.35 1.2.3.3 0 0 1-.56 0 7 7 0 0 1-.35-1.2" clip-rule="evenodd"/></g><g filter="url(#m)"><path fill="url(#n)" fill-rule="evenodd" d="M21.84 11.55a.6.6 0 0 0-.46-.46 5 5 0 0 1-.83-.32.33.33 0 0 1 0-.6q.45-.23.83-.33.36-.1.46-.46c.06-.35.18-.78.35-1.2a.3.3 0 0 1 .56 0c.17.42.28.85.35 1.2.05.23.23.4.45.46q.38.1.84.32c.25.13.25.48 0 .6q-.46.23-.84.33a.6.6 0 0 0-.45.46 7 7 0 0 1-.35 1.2.3.3 0 0 1-.56 0 7 7 0 0 1-.35-1.2" clip-rule="evenodd"/></g><path fill="url(#o)" d="M8.82 23.16q-.17 0-.23.16l-1.5 4.2a1.75 1.75 0 0 0 1.64 2.35l7.12.03h.25l7.12-.03a1.76 1.76 0 0 0 1.64-2.34l-1.5-4.2a.3.3 0 0 0-.23-.17z"/><path fill="url(#p)" d="M8.82 23.16q-.17 0-.23.16l-1.5 4.2a1.75 1.75 0 0 0 1.64 2.35l7.12.03h.25l7.12-.03a1.76 1.76 0 0 0 1.64-2.34l-1.5-4.2a.3.3 0 0 0-.23-.17z"/><path fill="url(#q)" d="M8.82 23.16q-.17 0-.23.16l-1.5 4.2a1.75 1.75 0 0 0 1.64 2.35l7.12.03h.25l7.12-.03a1.76 1.76 0 0 0 1.64-2.34l-1.5-4.2a.3.3 0 0 0-.23-.17z"/><path fill="url(#r)" d="M8.82 23.16q-.17 0-.23.16l-1.5 4.2a1.75 1.75 0 0 0 1.64 2.35l7.12.03h.25l7.12-.03a1.76 1.76 0 0 0 1.64-2.34l-1.5-4.2a.3.3 0 0 0-.23-.17z"/><path fill="url(#s)" d="M8.82 23.16q-.17 0-.23.16l-1.5 4.2a1.75 1.75 0 0 0 1.64 2.35l7.12.03h.25l7.12-.03a1.76 1.76 0 0 0 1.64-2.34l-1.5-4.2a.3.3 0 0 0-.23-.17z"/><defs><linearGradient id="e" x1="15.98" x2="15.98" y1="23.27" y2="22.72" gradientUnits="userSpaceOnUse"><stop stop-color="#392E48"/><stop offset="1" stop-color="#392E48" stop-opacity="0"/></linearGradient><linearGradient id="h" x1="13.66" x2="9.36" y1="12.93" y2="17.23" gradientUnits="userSpaceOnUse"><stop stop-color="#FFC154"/><stop offset="1" stop-color="#FFA271"/></linearGradient><linearGradient id="j" x1="15.43" x2="13.93" y1="5.77" y2="7.24" gradientUnits="userSpaceOnUse"><stop offset=".04" stop-color="#F2C954"/><stop offset="1" stop-color="#F7B669"/></linearGradient><linearGradient id="l" x1="23.76" x2="21.62" y1="9.45" y2="11.55" gradientUnits="userSpaceOnUse"><stop stop-color="#FFC154"/><stop offset="1" stop-color="#FFA271"/></linearGradient><linearGradient id="n" x1="23.76" x2="21.62" y1="9.45" y2="11.55" gradientUnits="userSpaceOnUse"><stop offset=".04" stop-color="#FEC953"/><stop offset="1" stop-color="#EEA654"/></linearGradient><linearGradient id="o" x1="8.1" x2="21.1" y1="28" y2="28" gradientUnits="userSpaceOnUse"><stop stop-color="#B9A6CD"/><stop offset="1" stop-color="#F1EAF6"/></linearGradient><linearGradient id="p" x1="24.55" x2="22.88" y1="25.33" y2="25.89" gradientUnits="userSpaceOnUse"><stop stop-color="#D9D7DF"/><stop offset="1" stop-color="#D9D7DF" stop-opacity="0"/></linearGradient><linearGradient id="q" x1="16.81" x2="16.81" y1="29.91" y2="27.95" gradientUnits="userSpaceOnUse"><stop stop-color="#CF8EEB"/><stop offset="1" stop-color="#CF8EEB" stop-opacity="0"/></linearGradient><linearGradient id="s" x1="6.67" x2="11.96" y1="26.53" y2="27.87" gradientUnits="userSpaceOnUse"><stop stop-color="#8B8496"/><stop offset="1" stop-color="#8B8496" stop-opacity="0"/></linearGradient><filter id="a" width="23.88" height="23.63" x="4.16" y="2.02" color-interpolation-filters="sRGB" filterUnits="userSpaceOnUse"><feFlood flood-opacity="0" result="BackgroundImageFix"/><feBlend in="SourceGraphic" in2="BackgroundImageFix" result="shape"/><feColorMatrix in="SourceAlpha" result="hardAlpha" values="0 0 0 0 0 0 0 0 0 0 0 0 0 0 0 0 0 0 127 0"/><feOffset dx=".25"/><feGaussianBlur stdDeviation="1"/><feComposite in2="hardAlpha" k2="-1" k3="1" operator="arithmetic"/><feColorMatrix values="0 0 0 0 0.368627 0 0 0 0 0.341176 0 0 0 0 0.411765 0 0 0 1 0"/><feBlend in2="shape" result="effect1_innerShadow_18_3412"/></filter><filter id="f" width="8.38" height="9.65" x="6.82" y="10.13" color-interpolation-filters="sRGB" filterUnits="userSpaceOnUse"><feFlood flood-opacity="0" result="BackgroundImageFix"/><feBlend in="SourceGraphic" in2="BackgroundImageFix" result="shape"/><feGaussianBlur result="effect1_foregroundBlur_18_3412" stdDeviation=".25"/></filter><filter id="g" width="7.68" height="8.95" x="7.17" y="10.48" color-interpolation-filters="sRGB" filterUnits="userSpaceOnUse"><feFlood flood-opacity="0" result="BackgroundImageFix"/><feBlend in="SourceGraphic" in2="BackgroundImageFix" result="shape"/><feColorMatrix in="SourceAlpha" result="hardAlpha" values="0 0 0 0 0 0 0 0 0 0 0 0 0 0 0 0 0 0 127 0"/><feOffset dx=".15" dy="-.15"/><feGaussianBlur stdDeviation=".38"/><feComposite in2="hardAlpha" k2="-1" k3="1" operator="arithmetic"/><feColorMatrix values="0 0 0 0 0.94902 0 0 0 0 0.513726 0 0 0 0 0.392157 0 0 0 1 0"/><feBlend in2="shape" result="effect1_innerShadow_18_3412"/><feColorMatrix in="SourceAlpha" result="hardAlpha" values="0 0 0 0 0 0 0 0 0 0 0 0 0 0 0 0 0 0 127 0"/><feOffset dx="-.15" dy=".15"/><feGaussianBlur stdDeviation=".3"/><feComposite in2="hardAlpha" k2="-1" k3="1" operator="arithmetic"/><feColorMatrix values="0 0 0 0 1 0 0 0 0 0.823529 0 0 0 0 0.407843 0 0 0 1 0"/><feBlend in2="effect1_innerShadow_18_3412" result="effect2_innerShadow_18_3412"/></filter><filter id="i" width="3.16" height="3.67" x="12.94" y="4.65" color-interpolation-filters="sRGB" filterUnits="userSpaceOnUse"><feFlood flood-opacity="0" result="BackgroundImageFix"/><feBlend in="SourceGraphic" in2="BackgroundImageFix" result="shape"/><feColorMatrix in="SourceAlpha" result="hardAlpha" values="0 0 0 0 0 0 0 0 0 0 0 0 0 0 0 0 0 0 127 0"/><feOffset dx=".1" dy="-.1"/><feGaussianBlur stdDeviation=".15"/><feComposite in2="hardAlpha" k2="-1" k3="1" operator="arithmetic"/><feColorMatrix values="0 0 0 0 0.952941 0 0 0 0 0.694118 0 0 0 0 0.396078 0 0 0 1 0"/><feBlend in2="shape" result="effect1_innerShadow_18_3412"/><feColorMatrix in="SourceAlpha" result="hardAlpha" values="0 0 0 0 0 0 0 0 0 0 0 0 0 0 0 0 0 0 127 0"/><feOffset dx="-.1" dy=".1"/><feGaussianBlur stdDeviation=".15"/><feComposite in2="hardAlpha" k2="-1" k3="1" operator="arithmetic"/><feColorMatrix values="0 0 0 0 1 0 0 0 0 0.823529 0 0 0 0 0.407843 0 0 0 1 0"/><feBlend in2="effect1_innerShadow_18_3412" result="effect2_innerShadow_18_3412"/></filter><filter id="k" width="4.52" height="5.25" x="20.2" y="7.84" color-interpolation-filters="sRGB" filterUnits="userSpaceOnUse"><feFlood flood-opacity="0" result="BackgroundImageFix"/><feBlend in="SourceGraphic" in2="BackgroundImageFix" result="shape"/><feColorMatrix in="SourceAlpha" result="hardAlpha" values="0 0 0 0 0 0 0 0 0 0 0 0 0 0 0 0 0 0 127 0"/><feOffset dx=".15" dy="-.15"/><feGaussianBlur stdDeviation=".38"/><feComposite in2="hardAlpha" k2="-1" k3="1" operator="arithmetic"/><feColorMatrix values="0 0 0 0 0.94902 0 0 0 0 0.513726 0 0 0 0 0.392157 0 0 0 1 0"/><feBlend in2="shape" result="effect1_innerShadow_18_3412"/><feColorMatrix in="SourceAlpha" result="hardAlpha" values="0 0 0 0 0 0 0 0 0 0 0 0 0 0 0 0 0 0 127 0"/><feOffset dx="-.15" dy=".15"/><feGaussianBlur stdDeviation=".3"/><feComposite in2="hardAlpha" k2="-1" k3="1" operator="arithmetic"/><feColorMatrix values="0 0 0 0 1 0 0 0 0 0.823529 0 0 0 0 0.407843 0 0 0 1 0"/><feBlend in2="effect1_innerShadow_18_3412" result="effect2_innerShadow_18_3412"/></filter><filter id="m" width="4.47" height="5.2" x="20.2" y="7.89" color-interpolation-filters="sRGB" filterUnits="userSpaceOnUse"><feFlood flood-opacity="0" result="BackgroundImageFix"/><feBlend in="SourceGraphic" in2="BackgroundImageFix" result="shape"/><feColorMatrix in="SourceAlpha" result="hardAlpha" values="0 0 0 0 0 0 0 0 0 0 0 0 0 0 0 0 0 0 127 0"/><feOffset dx="-.15" dy=".15"/><feGaussianBlur stdDeviation=".25"/><feComposite in2="hardAlpha" k2="-1" k3="1" operator="arithmetic"/><feColorMatrix values="0 0 0 0 1 0 0 0 0 0.886275 0 0 0 0 0.513726 0 0 0 1 0"/><feBlend in2="shape" result="effect1_innerShadow_18_3412"/><feColorMatrix in="SourceAlpha" result="hardAlpha" values="0 0 0 0 0 0 0 0 0 0 0 0 0 0 0 0 0 0 127 0"/><feOffset dx=".1" dy="-.1"/><feGaussianBlur stdDeviation=".15"/><feComposite in2="hardAlpha" k2="-1" k3="1" operator="arithmetic"/><feColorMatrix values="0 0 0 0 0.988235 0 0 0 0 0.619608 0 0 0 0 0.447059 0 0 0 1 0"/><feBlend in2="effect1_innerShadow_18_3412" result="effect2_innerShadow_18_3412"/></filter><radialGradient id="b" cx="0" cy="0" r="1" gradientTransform="rotate(126.32 8.52 10.83)scale(14.8921)" gradientUnits="userSpaceOnUse"><stop stop-color="#7B7486"/><stop offset=".79" stop-color="#35303C"/></radialGradient><radialGradient id="c" cx="0" cy="0" r="1" gradientTransform="rotate(-55.36 27.8 -1.68)scale(14.6801 18.1427)" gradientUnits="userSpaceOnUse"><stop stop-color="#5C4077"/><stop offset="1" stop-color="#5C4077" stop-opacity="0"/></radialGradient><radialGradient id="d" cx="0" cy="0" r="1" gradientTransform="matrix(1 -1.5 2.23876 1.49251 8.57 23.81)" gradientUnits="userSpaceOnUse"><stop stop-color="#66547A"/><stop offset="1" stop-color="#66547A" stop-opacity="0"/></radialGradient><radialGradient id="r" cx="0" cy="0" r="1" gradientTransform="matrix(0 -5.87123 14.7007 0 17.2 32.4)" gradientUnits="userSpaceOnUse"><stop stop-color="#CF8EEB"/><stop offset="1" stop-color="#CF8EEB" stop-opacity="0"/></radialGradient></defs></svg>