<svg xmlns="http://www.w3.org/2000/svg" width="32" height="32" fill="none"><circle cx="15.97" cy="27.47" r="2.5" fill="url(#a)"/><circle cx="15.97" cy="27.47" r="2.5" fill="url(#b)"/><circle cx="15.97" cy="27.47" r="2.5" fill="url(#c)"/><g filter="url(#d)"><path fill="url(#e)" d="M13.47 4.53a2.5 2.5 0 0 1 5 0V20.5a2.5 2.5 0 1 1-5 0z"/><path fill="url(#f)" d="M13.47 4.53a2.5 2.5 0 0 1 5 0V20.5a2.5 2.5 0 1 1-5 0z"/></g><g filter="url(#g)"><path stroke="url(#h)" stroke-linecap="round" stroke-linejoin="round" stroke-width="2" d="M16.64 20.94V5.74"/></g><defs><radialGradient id="b" cx="0" cy="0" r="1" gradientTransform="rotate(-48.81 38.36 -5.1)scale(2.32534 2.04444)" gradientUnits="userSpaceOnUse"><stop offset=".23" stop-color="#FF5878"/><stop offset="1" stop-color="#FF5878" stop-opacity="0"/></radialGradient><radialGradient id="c" cx="0" cy="0" r="1" gradientTransform="rotate(25.99 -48.65 41.96)scale(2.78125 7.5306)" gradientUnits="userSpaceOnUse"><stop stop-color="#C8404B"/><stop offset="1" stop-color="#C8404B" stop-opacity="0"/></radialGradient><radialGradient id="f" cx="0" cy="0" r="1" gradientTransform="matrix(-2.62498 1.62502 -1.16605 -1.88357 18.01 3.56)" gradientUnits="userSpaceOnUse"><stop stop-color="#FF5960"/><stop offset="1" stop-color="#FF5960" stop-opacity="0"/></radialGradient><linearGradient id="a" x1="15.97" x2="15.97" y1="26.19" y2="29.97" gradientUnits="userSpaceOnUse"><stop stop-color="#FF0B38"/><stop offset="1" stop-color="#F62093"/></linearGradient><linearGradient id="e" x1="15.97" x2="15.97" y1="2.5" y2="23" gradientUnits="userSpaceOnUse"><stop stop-color="#ED1F28"/><stop offset="1" stop-color="#F41585"/></linearGradient><linearGradient id="h" x1="17.34" x2="21.96" y1="22.53" y2="21.33" gradientUnits="userSpaceOnUse"><stop stop-color="#FF4282"/><stop offset="1" stop-color="#FF3E59"/></linearGradient><filter id="d" width="5.75" height="21.72" x="13.47" y="2.03" color-interpolation-filters="sRGB" filterUnits="userSpaceOnUse"><feFlood flood-opacity="0" result="BackgroundImageFix"/><feBlend in="SourceGraphic" in2="BackgroundImageFix" result="shape"/><feColorMatrix in="SourceAlpha" result="hardAlpha" values="0 0 0 0 0 0 0 0 0 0 0 0 0 0 0 0 0 0 127 0"/><feOffset dx=".75" dy=".75"/><feGaussianBlur stdDeviation=".75"/><feComposite in2="hardAlpha" k2="-1" k3="1" operator="arithmetic"/><feColorMatrix values="0 0 0 0 0.74902 0 0 0 0 0.160784 0 0 0 0 0.301961 0 0 0 1 0"/><feBlend in2="shape" result="effect1_innerShadow_18590_1840"/></filter><filter id="g" width="5" height="20.19" x="14.14" y="3.25" color-interpolation-filters="sRGB" filterUnits="userSpaceOnUse"><feFlood flood-opacity="0" result="BackgroundImageFix"/><feBlend in="SourceGraphic" in2="BackgroundImageFix" result="shape"/><feGaussianBlur result="effect1_foregroundBlur_18590_1840" stdDeviation=".75"/></filter></defs></svg>